<svg width="800" height="800" viewBox="0 0 800 800" fill="none" xmlns="http://www.w3.org/2000/svg">
<path d="M630.981 435.401V699H746.728C776.153 699 800 675.163 800 645.752V353.217L630.981 435.401ZM630.981 391.828L800 279.204V195.868C800 166.472 787.523 137.797 764.275 119.797C728.382 92.0135 679.535 94.1023 646.5 122.116L630.981 134.296V391.828ZM213.257 419.812L400.5 530.056L590.247 418.337L576.326 177.161L400.5 315.035L227.148 179.097L213.257 419.812ZM172.37 393.395V136.139L154.5 122.132C121.465 94.133 72.6181 92.0135 36.7399 119.813C13.4767 137.797 1 166.487 1 195.899V279.204L172.37 393.395ZM1 353.217V645.752C1 675.163 24.8471 699 54.2718 699H170.019V435.401L1 353.217Z" fill="white"/>
</svg>
