<svg width="800" height="800" viewBox="0 0 800 800" fill="none" xmlns="http://www.w3.org/2000/svg">
<path d="M312 480C304.09 480 296.356 477.655 289.778 473.26C283.2 468.865 278.073 462.615 275.045 455.305C272.018 448 271.226 439.955 272.769 432.195C274.312 424.435 278.122 417.31 283.716 411.715C289.31 406.12 296.438 402.31 304.195 400.77C311.955 399.225 320 400.015 327.305 403.045C334.615 406.07 340.865 411.2 345.26 417.775C349.655 424.355 352 432.09 352 440C352 445.255 350.965 450.455 348.955 455.305C346.945 460.16 344 464.57 340.285 468.285C336.57 472 332.16 474.945 327.305 476.955C322.455 478.965 317.255 480 312 480ZM800 400C800 479.115 776.54 556.449 732.59 622.229C688.635 688.009 626.165 739.274 553.075 769.549C479.985 799.824 399.555 807.749 321.965 792.314C244.371 776.879 173.098 738.784 117.157 682.844C61.2165 626.899 23.12 555.63 7.68596 478.035C-7.74804 400.445 0.173476 320.015 30.4485 246.926C60.7235 173.836 111.992 111.364 177.772 67.4119C243.551 23.4595 320.89 0 400 0C506.085 0 607.83 42.1425 682.845 117.157C757.855 192.172 800 293.913 800 400ZM586.5 333.5C572.715 334.31 559.715 340.19 550 350C508.875 322.82 460.79 308.065 411.5 307.5L439.5 181L529 201C528.935 206.229 529.905 211.419 531.86 216.269C533.82 221.12 536.715 225.533 540.39 229.254C544.065 232.975 548.445 235.93 553.27 237.946C558.095 239.962 563.27 241 568.5 241C579.155 240.868 589.33 236.543 596.815 228.962C604.305 221.381 608.5 211.155 608.5 200.5C608.8 191.357 605.915 182.395 600.345 175.142C594.77 167.888 586.85 162.794 577.94 160.729C569.03 158.663 559.68 159.755 551.48 163.816C543.285 167.878 536.755 174.658 533 183L433 161C430.62 160.543 428.155 161.013 426.11 162.315C424.065 163.616 422.595 165.65 422 168L391 307.5C341.73 308.205 293.684 322.945 252.5 350C247.088 344.41 240.522 340.07 233.259 337.28C225.997 334.49 218.213 333.315 210.451 333.845C202.689 334.37 195.135 336.58 188.315 340.325C181.496 344.07 175.576 349.26 170.967 355.525C166.358 361.795 163.172 368.995 161.63 376.62C160.089 384.245 160.229 392.115 162.041 399.68C163.853 407.245 167.293 414.325 172.122 420.425C176.951 426.525 183.052 431.5 190 435C189.235 443.315 189.235 451.685 190 460C190 544.499 285.5 613.499 403 613.499C520.5 613.499 616 544.499 616 460C616.02 451.41 615.01 442.85 613 434.5C623.105 428.775 631.075 419.92 635.7 409.27C640.33 398.62 641.37 386.755 638.66 375.46C635.95 364.17 629.635 354.065 620.68 346.675C611.72 339.29 600.6 335.015 589 334.5L586.5 333.5ZM475.5 521C453.03 535.115 427.035 542.6 400.5 542.6C373.965 542.6 347.97 535.115 325.5 521C323.655 519.315 321.25 518.38 318.75 518.38C316.25 518.38 313.845 519.315 312 521C311.03 521.89 310.255 522.969 309.725 524.174C309.195 525.379 308.925 526.685 308.925 528C308.925 529.315 309.195 530.62 309.725 531.825C310.255 533.03 311.03 534.11 312 535C338.26 552.819 369.265 562.344 401 562.344C432.735 562.344 463.74 552.819 490 535C490.97 534.11 491.745 533.03 492.275 531.825C492.805 530.62 493.08 529.315 493.08 528C493.08 526.685 492.805 525.379 492.275 524.174C491.745 522.969 490.97 521.89 490 521C489.065 520.015 487.94 519.235 486.695 518.7C485.45 518.165 484.105 517.885 482.75 517.885C481.395 517.885 480.05 518.165 478.805 518.7C477.56 519.235 476.435 520.015 475.5 521ZM488 400C480.09 400 472.355 402.345 465.775 406.74C459.2 411.135 454.07 417.385 451.045 424.695C448.02 432 447.225 440.045 448.77 447.805C450.31 455.565 454.12 462.69 459.715 468.285C465.31 473.88 472.435 477.69 480.195 479.23C487.955 480.775 496 479.985 503.31 476.955C510.615 473.93 516.865 468.8 521.26 462.225C525.655 455.645 528 447.91 528 440C528 429.39 523.785 419.215 516.285 411.715C508.785 404.215 498.61 400 488 400Z" fill="white"/>
</svg>
