<svg width="800" height="800" viewBox="0 0 800 800" fill="none" xmlns="http://www.w3.org/2000/svg">
<path fill-rule="evenodd" clip-rule="evenodd" d="M798.461 122.1C809.973 65.9762 754.849 19.3366 701.408 39.9848L46.3262 293.084C-13.3537 316.143 -16.0129 399.597 42.0776 426.406L184.736 492.25L252.601 729.774C256.126 742.112 265.916 751.665 278.337 754.884C290.758 758.1 303.955 754.508 313.028 745.433L417.566 640.894L564.005 750.723C606.513 782.603 667.736 759.382 678.412 707.332L798.461 122.1ZM72.4292 360.645L727.511 107.546L607.461 692.781L435.898 564.106C421.481 553.292 401.306 554.726 388.563 567.47L343.788 612.245L357.241 538.256L620.846 274.652C633.677 261.823 635.031 241.481 624.018 227.064C613.006 212.645 593.027 208.601 577.273 217.603L213.227 425.627L72.4292 360.645ZM257.615 483.682L279.574 560.542L288.005 514.17C289.323 506.924 292.819 500.25 298.028 495.042L378.419 414.654L257.615 483.682Z" fill="white"/>
</svg>
