<svg width="800" height="800" viewBox="0 0 800 800" fill="none" xmlns="http://www.w3.org/2000/svg">
<path d="M484.424 389.672C469.796 384.176 469.796 363.183 468.889 348.564C465.232 296.492 483.517 216.994 461.575 183.195C446.039 163.08 371.054 164.922 325.355 167.67C312.541 169.512 297.005 172.231 286.034 177.728C275.063 183.225 264.091 192.347 264.091 200.563C264.091 212.433 291.534 210.62 301.569 226.146C312.541 242.607 312.541 278.218 312.541 307.456C312.541 341.255 307.04 386.047 293.348 387.86C272.313 388.766 260.434 367.744 249.463 352.219C227.52 322.075 205.578 284.592 189.106 248.045C180.885 228.865 176.292 207.843 164.414 199.627C146.128 186.821 113.214 185.915 81.2074 186.821C51.9506 187.727 9.87933 184.073 1.65818 201.44C-4.74906 220.62 8.97237 238.893 16.2866 254.448C53.7645 335.758 93.9926 407.04 143.378 474.637C189.106 537.674 232.055 587.934 316.169 614.423C339.954 621.732 444.167 642.754 465.203 614.423C472.517 603.459 470.703 578.782 474.36 560.509C478.017 542.235 482.581 523.961 499.96 523.055C514.588 522.149 522.809 534.926 531.967 544.077C542.031 554.135 550.252 562.351 557.566 571.502C574.945 588.869 593.23 612.61 615.173 621.762C645.337 634.568 691.972 630.913 735.857 629.071C771.521 628.165 797.121 620.855 799.871 599.833C801.714 583.373 783.399 559.631 772.428 545.919C744.985 512.12 732.2 502.062 701.1 470.983C687.379 457.27 670 442.651 670 426.22C669.093 416.162 677.314 407.04 684.628 396.982C716.635 349.471 748.642 315.672 777.899 266.318C786.12 251.7 805.342 217.901 798.028 201.44C789.806 183.166 744.078 188.634 715.728 188.634C679.157 188.634 631.615 185.885 622.458 193.195C605.079 205.065 597.765 224.274 589.544 242.548C571.258 284.592 546.566 327.513 520.966 359.499C511.809 370.463 494.459 393.298 484.395 389.643L484.424 389.672Z" fill="white"/>
</svg>
